<svg width="56" height="56" viewBox="0 0 56 56" fill="none" xmlns="http://www.w3.org/2000/svg">
<path d="M19.4995 35H17.5405V27.189C17.5405 26.9289 17.5433 26.6688 17.5488 26.4087C17.5544 26.1486 17.5599 25.894 17.5654 25.645C17.5765 25.396 17.5903 25.158 17.6069 24.9312C17.4907 25.0584 17.3468 25.1968 17.1753 25.3462C17.0093 25.4956 16.8322 25.6506 16.644 25.811L15.2495 26.9233L14.27 25.6865L17.8726 22.8643H19.4995V35ZM23.5088 29.8286C23.5088 29.1147 23.5586 28.4119 23.6582 27.7202C23.7633 27.0285 23.9404 26.381 24.1895 25.7778C24.4385 25.1746 24.7816 24.6434 25.2188 24.1841C25.6615 23.7248 26.2176 23.3651 26.8872 23.105C27.5568 22.8394 28.362 22.7065 29.3027 22.7065C29.5462 22.7065 29.8201 22.7176 30.1245 22.7397C30.4289 22.7619 30.6807 22.7979 30.8799 22.8477V24.4663C30.6641 24.4054 30.4261 24.3584 30.166 24.3252C29.9115 24.292 29.6569 24.2754 29.4023 24.2754C28.3841 24.2754 27.59 24.4691 27.02 24.8564C26.45 25.2383 26.0433 25.764 25.7998 26.4336C25.5563 27.0977 25.4152 27.8586 25.3765 28.7163H25.4761C25.6421 28.4396 25.8496 28.1934 26.0986 27.9775C26.3477 27.7617 26.652 27.5902 27.0117 27.4629C27.3714 27.3301 27.7892 27.2637 28.2651 27.2637C28.9735 27.2637 29.5905 27.4131 30.1162 27.7119C30.6419 28.0052 31.0459 28.4313 31.3281 28.9902C31.6159 29.5492 31.7598 30.2271 31.7598 31.0239C31.7598 31.8817 31.5965 32.6204 31.27 33.2402C30.9491 33.86 30.4897 34.3359 29.8921 34.668C29.3 35 28.5944 35.166 27.7754 35.166C27.1722 35.166 26.6105 35.0553 26.0903 34.834C25.5757 34.6126 25.1247 34.2806 24.7373 33.8379C24.3499 33.3952 24.0483 32.8418 23.8325 32.1777C23.6167 31.5081 23.5088 30.7251 23.5088 29.8286ZM27.7422 33.5557C28.373 33.5557 28.8794 33.3509 29.2612 32.9414C29.6486 32.5264 29.8423 31.8927 29.8423 31.0405C29.8423 30.3488 29.6707 29.8009 29.3276 29.397C28.9901 28.993 28.481 28.791 27.8003 28.791C27.3354 28.791 26.9287 28.8906 26.5801 29.0898C26.2314 29.2891 25.9603 29.5409 25.7666 29.8452C25.5785 30.1496 25.4844 30.4595 25.4844 30.7749C25.4844 31.0959 25.5314 31.4196 25.6255 31.7461C25.7196 32.0726 25.8607 32.3742 26.0488 32.6509C26.237 32.922 26.4722 33.1406 26.7544 33.3066C27.0366 33.4727 27.3659 33.5557 27.7422 33.5557ZM38.0435 28.2681H41.3638V29.7456H38.0435V33.0991H36.5659V29.7456H33.2539V28.2681H36.5659V24.8813H38.0435V28.2681Z" fill="white"/>
<rect x="0.75" y="0.75" width="54.5" height="54.5" rx="27.25" stroke="white" stroke-width="1.5"/>
</svg>
