<svg width="33" height="20" viewBox="0 0 33 20" fill="none" xmlns="http://www.w3.org/2000/svg">
          <path fill-rule="evenodd" clip-rule="evenodd" d="M17.8719 19.5179C17.8719 19.5179 18.4593 19.449 18.7602 19.1079C19.0357 18.7953 19.0261 18.2055 19.0261 18.2055C19.0261 18.2055 18.9895 15.4515 20.2011 15.0448C21.3951 14.6449 22.9283 17.7082 24.5554 18.8861C25.7845 19.7766 26.7174 19.5817 26.7174 19.5817L31.0654 19.5179C31.0654 19.5179 33.3388 19.37 32.261 17.483C32.1719 17.3284 31.6321 16.0866 29.0291 13.5359C26.3019 10.8659 26.6681 11.2977 29.9509 6.67847C31.9506 3.8656 32.7498 2.1483 32.4998 1.414C32.2626 0.711623 30.7915 0.89814 30.7915 0.89814L25.8975 0.930066C25.8975 0.930066 25.5345 0.877976 25.2654 1.04769C25.0028 1.21404 24.8324 1.6022 24.8324 1.6022C24.8324 1.6022 24.0587 3.77822 23.0254 5.62995C20.8459 9.53503 19.975 9.74171 19.6184 9.49975C18.7889 8.93348 18.9959 7.22794 18.9959 6.01642C18.9959 2.23064 19.5404 0.652811 17.9371 0.244491C17.4054 0.108385 17.0137 0.0193272 15.6525 0.00420424C13.906 -0.0142794 12.4286 0.0109256 11.5911 0.44277C11.0339 0.730107 10.6041 1.37199 10.8667 1.40896C11.1899 1.45433 11.9223 1.61732 12.3108 2.17519C12.8123 2.89605 12.7947 4.51253 12.7947 4.51253C12.7947 4.51253 13.0829 8.96876 12.1213 9.52159C11.4622 9.90135 10.5579 9.12671 8.61397 5.5829C7.61892 3.76814 6.86746 1.76183 6.86746 1.76183C6.86746 1.76183 6.72258 1.38712 6.46308 1.18548C6.14944 0.941828 5.71162 0.866213 5.71162 0.866213L1.06118 0.89814C1.06118 0.89814 0.362257 0.918304 0.105934 1.23925C-0.121732 1.52322 0.088421 2.11302 0.088421 2.11302C0.088421 2.11302 3.72949 11.1045 7.85296 15.6363C11.6341 19.7901 15.9264 19.5179 15.9264 19.5179H17.8719Z" fill="#666666"></path>
        </svg>