<svg width="36" height="36" viewBox="0 0 36 36" fill="none" xmlns="http://www.w3.org/2000/svg">
<rect x="0.5" y="0.5" width="35" height="35" rx="17.5" stroke="white"/>
<path d="M21.3334 21.3333C21.3334 20.4125 18.7217 19.6666 15.5 19.6666M21.3334 21.3333C21.3334 22.2541 18.7217 23 15.5 23C12.2784 23 9.66671 22.2541 9.66671 21.3333M21.3334 21.3333V25.4475C21.3334 26.3966 18.7217 27.1666 15.5 27.1666C12.2784 27.1666 9.66671 26.3975 9.66671 25.4475V21.3333M21.3334 21.3333C24.52 21.3333 27.1667 20.5108 27.1667 19.6666V11.3333M15.5 19.6666C12.2784 19.6666 9.66671 20.4125 9.66671 21.3333M15.5 19.6666C11.8184 19.6666 8.83337 18.8441 8.83337 18V13.8333M15.5 12.1666C11.8184 12.1666 8.83337 12.9125 8.83337 13.8333M8.83337 13.8333C8.83337 14.7541 11.8184 15.5 15.5 15.5C15.5 16.3441 18.2109 17.1666 21.3975 17.1666C24.5834 17.1666 27.1667 16.3441 27.1667 15.5M27.1667 11.3333C27.1667 10.4125 24.5834 9.66663 21.3975 9.66663C18.2109 9.66663 15.6284 10.4125 15.6284 11.3333M27.1667 11.3333C27.1667 12.2541 24.5834 13 21.3975 13C18.2117 13 15.6284 12.2541 15.6284 11.3333M15.6284 11.3333V19.805" stroke="white"/>
</svg>
