<svg width="36" height="36" viewBox="0 0 36 36" fill="none" xmlns="http://www.w3.org/2000/svg">
<rect x="0.5" y="0.5" width="35" height="35" rx="17.5" stroke="white"/>
<path d="M17.5 20C21.64 20 25 21.57 25 23.5V26H10V23.5C10 21.57 13.36 20 17.5 20ZM24 23.5C24 22.12 21.09 21 17.5 21C13.91 21 11 22.12 11 23.5V25H24V23.5ZM17.5 11C18.4283 11 19.3185 11.3687 19.9749 12.0251C20.6313 12.6815 21 13.5717 21 14.5C21 15.4283 20.6313 16.3185 19.9749 16.9749C19.3185 17.6313 18.4283 18 17.5 18C16.5717 18 15.6815 17.6313 15.0251 16.9749C14.3687 16.3185 14 15.4283 14 14.5C14 13.5717 14.3687 12.6815 15.0251 12.0251C15.6815 11.3687 16.5717 11 17.5 11ZM17.5 12C16.837 12 16.2011 12.2634 15.7322 12.7322C15.2634 13.2011 15 13.837 15 14.5C15 15.163 15.2634 15.7989 15.7322 16.2678C16.2011 16.7366 16.837 17 17.5 17C18.163 17 18.7989 16.7366 19.2678 16.2678C19.7366 15.7989 20 15.163 20 14.5C20 13.837 19.7366 13.2011 19.2678 12.7322C18.7989 12.2634 18.163 12 17.5 12Z" fill="white"/>
<path d="M25.4014 15.4351V15.4789H26.2177V15.4351C26.2222 15.1331 26.2517 14.8811 26.3061 14.679C26.3605 14.4769 26.4478 14.3028 26.568 14.1567C26.6882 14.0081 26.8481 13.8669 27.0476 13.733C27.2472 13.6015 27.4172 13.4505 27.5578 13.2801C27.7007 13.1096 27.8095 12.916 27.8844 12.6993C27.9615 12.4826 28 12.2403 28 11.9724C28 11.5925 27.9184 11.2541 27.7551 10.957C27.5941 10.6599 27.3651 10.4261 27.068 10.2557C26.7732 10.0852 26.4263 10 26.0272 10C25.6599 10 25.3254 10.0779 25.0238 10.2338C24.7245 10.3896 24.483 10.6149 24.2993 10.9095C24.1179 11.2041 24.0181 11.5585 24 11.9724H24.8571C24.8753 11.6851 24.9422 11.4525 25.0578 11.2748C25.1735 11.097 25.3175 10.9667 25.4898 10.8839C25.6621 10.8011 25.8413 10.7597 26.0272 10.7597C26.2404 10.7597 26.4342 10.8072 26.6088 10.9022C26.7834 10.9972 26.9229 11.1323 27.0272 11.3076C27.1315 11.483 27.1837 11.6899 27.1837 11.9286C27.1837 12.121 27.1519 12.2963 27.0884 12.4546C27.0272 12.6128 26.9433 12.7529 26.8367 12.8746C26.7302 12.9939 26.61 13.0974 26.4762 13.1851C26.254 13.3288 26.0635 13.4858 25.9048 13.6563C25.746 13.8267 25.6236 14.0495 25.5374 14.3247C25.4512 14.5999 25.4059 14.97 25.4014 15.4351Z" fill="white"/>
<path d="M25.3586 17.0476V18H26.2455V17.0476H25.3586Z" fill="white"/>
</svg>
