<svg width="14" height="21" viewBox="0 0 14 21" fill="none" xmlns="http://www.w3.org/2000/svg">
          <path d="M0.934147 11.2708C0.423314 12.3252 1.00331 12.8292 2.32665 13.6902C3.45165 14.42 5.00581 14.6868 6.00415 14.7936C5.59498 15.2066 7.46998 13.3131 2.06998 18.767C0.92498 19.9193 2.76831 21.7682 3.91248 20.6403L7.00998 17.5035C8.19581 18.7013 9.33248 19.8493 10.1075 20.6447C11.2525 21.777 13.095 19.9438 11.9625 18.7713C11.8775 18.6865 7.76498 14.5442 8.01581 14.798C9.02665 14.6912 10.5575 14.4086 11.6691 13.6946L11.6683 13.6937C12.9916 12.8283 13.5716 12.3252 13.0683 11.2708C12.7641 10.6723 11.9441 10.1718 10.8525 11.0372C10.8525 11.0372 9.37831 12.2228 7.00081 12.2228C4.62248 12.2228 3.14915 11.0372 3.14915 11.0372C2.05831 10.1675 1.23498 10.6723 0.934147 11.2708Z" fill="#666666"></path>
          <path d="M6.99923 10.6243C9.89756 10.6243 12.2642 8.246 12.2642 5.31825C12.2642 2.37825 9.89756 0 6.99923 0C4.10006 0 1.7334 2.37825 1.7334 5.31825C1.7334 8.246 4.10006 10.6243 6.99923 10.6243ZM6.99923 2.69413C8.4234 2.69413 9.58507 3.8675 9.58507 5.31825C9.58507 6.75675 8.4234 7.93013 6.99923 7.93013C5.57506 7.93013 4.4134 6.75675 4.4134 5.31825C4.41256 3.86663 5.57423 2.69413 6.99923 2.69413Z" fill="#666666"></path>
        </svg>