<svg width="27" height="21" viewBox="0 0 27 21" fill="none" xmlns="http://www.w3.org/2000/svg">
          <path d="M25.971 2.44527C25.0154 2.87359 23.9942 3.16437 22.9268 3.3157C24.0159 2.65649 24.838 1.63637 25.2114 0.41774C24.1959 1.03152 23.0705 1.4723 21.8674 1.72849C20.8752 0.73583 19.4756 0.134968 17.9608 0.16185C15.0218 0.214005 12.697 2.57839 12.7475 5.42546C12.7548 5.83511 12.7974 6.22837 12.8914 6.60181C8.47444 6.47057 4.53279 4.4806 1.85375 1.39018C1.40949 2.17192 1.15655 3.06216 1.17347 4.01538C1.20523 5.80524 2.18013 7.37504 3.60764 8.26856C2.75449 8.26794 1.91352 8.04172 1.19793 7.67459C1.19821 7.69034 1.19858 7.71082 1.19894 7.73131C1.24351 10.2428 3.12061 12.2962 5.54211 12.7339C5.11205 12.8566 4.64209 12.9201 4.15334 12.9288C3.81348 12.9348 3.47006 12.922 3.14677 12.8584C3.8709 14.8928 5.84934 16.3629 8.17094 16.3705C6.38926 17.7781 4.11075 18.6475 1.62818 18.6916C1.19284 18.6993 0.77497 18.6878 0.35651 18.6432C2.73419 20.0778 5.53596 20.8713 8.54126 20.8179C18.3097 20.6446 23.5105 12.6719 23.3893 5.84339C23.3852 5.61494 23.3732 5.3945 23.358 5.17569C24.3987 4.42908 25.2678 3.50426 25.971 2.44527Z" fill="#666666"></path>
        </svg>